<mxfile host="app.diagrams.net" modified="2021-09-06T05:06:39.890Z" agent="5.0 (Windows NT 10.0; Win64; x64) AppleWebKit/537.36 (KHTML, like Gecko) Chrome/92.0.4515.159 Safari/537.36" etag="eBtkAHAvG0I80SS_v4Az" version="15.0.6" type="github">
  <diagram id="mLmwWPrRvbqz2g4hGU7p" name="Page-1">
    <mxGraphModel dx="868" dy="450" grid="1" gridSize="10" guides="1" tooltips="1" connect="1" arrows="1" fold="1" page="1" pageScale="1" pageWidth="850" pageHeight="1100" math="0" shadow="0">
      <root>
        <mxCell id="0" />
        <mxCell id="1" parent="0" />
        <mxCell id="DcZRLVDdrjVp50DSScSN-31" style="edgeStyle=orthogonalEdgeStyle;rounded=0;orthogonalLoop=1;jettySize=auto;html=1;exitX=1;exitY=0.5;exitDx=0;exitDy=0;entryX=0;entryY=0.5;entryDx=0;entryDy=0;" edge="1" parent="1" source="DcZRLVDdrjVp50DSScSN-1" target="DcZRLVDdrjVp50DSScSN-26">
          <mxGeometry relative="1" as="geometry">
            <mxPoint x="340" y="270" as="targetPoint" />
          </mxGeometry>
        </mxCell>
        <mxCell id="DcZRLVDdrjVp50DSScSN-1" value="" style="rounded=1;whiteSpace=wrap;html=1;" vertex="1" parent="1">
          <mxGeometry x="50" y="210" width="90" height="30" as="geometry" />
        </mxCell>
        <mxCell id="DcZRLVDdrjVp50DSScSN-36" style="edgeStyle=orthogonalEdgeStyle;rounded=0;orthogonalLoop=1;jettySize=auto;html=1;exitX=0.25;exitY=1;exitDx=0;exitDy=0;entryX=0.5;entryY=0;entryDx=0;entryDy=0;" edge="1" parent="1" source="DcZRLVDdrjVp50DSScSN-2" target="DcZRLVDdrjVp50DSScSN-32">
          <mxGeometry relative="1" as="geometry" />
        </mxCell>
        <mxCell id="DcZRLVDdrjVp50DSScSN-2" value="Payment&lt;br&gt;" style="text;html=1;strokeColor=none;fillColor=none;align=center;verticalAlign=middle;whiteSpace=wrap;rounded=0;" vertex="1" parent="1">
          <mxGeometry x="70" y="215" width="40" height="20" as="geometry" />
        </mxCell>
        <mxCell id="DcZRLVDdrjVp50DSScSN-15" style="edgeStyle=orthogonalEdgeStyle;rounded=0;orthogonalLoop=1;jettySize=auto;html=1;exitX=0.5;exitY=1;exitDx=0;exitDy=0;entryX=0;entryY=0.75;entryDx=0;entryDy=0;" edge="1" parent="1" source="DcZRLVDdrjVp50DSScSN-3" target="DcZRLVDdrjVp50DSScSN-1">
          <mxGeometry relative="1" as="geometry" />
        </mxCell>
        <mxCell id="DcZRLVDdrjVp50DSScSN-3" value="" style="ellipse;whiteSpace=wrap;html=1;aspect=fixed;" vertex="1" parent="1">
          <mxGeometry x="10" y="125" width="55" height="55" as="geometry" />
        </mxCell>
        <mxCell id="DcZRLVDdrjVp50DSScSN-7" style="edgeStyle=orthogonalEdgeStyle;rounded=0;orthogonalLoop=1;jettySize=auto;html=1;exitX=0.5;exitY=1;exitDx=0;exitDy=0;entryX=0.356;entryY=-0.033;entryDx=0;entryDy=0;entryPerimeter=0;" edge="1" parent="1" source="DcZRLVDdrjVp50DSScSN-4" target="DcZRLVDdrjVp50DSScSN-1">
          <mxGeometry relative="1" as="geometry" />
        </mxCell>
        <mxCell id="DcZRLVDdrjVp50DSScSN-4" value="" style="ellipse;whiteSpace=wrap;html=1;" vertex="1" parent="1">
          <mxGeometry x="50" y="50" width="70" height="50" as="geometry" />
        </mxCell>
        <mxCell id="DcZRLVDdrjVp50DSScSN-8" style="edgeStyle=orthogonalEdgeStyle;rounded=0;orthogonalLoop=1;jettySize=auto;html=1;exitX=0.5;exitY=1;exitDx=0;exitDy=0;entryX=1;entryY=0;entryDx=0;entryDy=0;" edge="1" parent="1" source="DcZRLVDdrjVp50DSScSN-5" target="DcZRLVDdrjVp50DSScSN-1">
          <mxGeometry relative="1" as="geometry" />
        </mxCell>
        <mxCell id="DcZRLVDdrjVp50DSScSN-5" value="" style="ellipse;whiteSpace=wrap;html=1;" vertex="1" parent="1">
          <mxGeometry x="110" y="110" width="70" height="50" as="geometry" />
        </mxCell>
        <mxCell id="DcZRLVDdrjVp50DSScSN-9" value="ID" style="text;html=1;strokeColor=none;fillColor=none;align=center;verticalAlign=middle;whiteSpace=wrap;rounded=0;" vertex="1" parent="1">
          <mxGeometry x="15" y="145" width="40" height="20" as="geometry" />
        </mxCell>
        <mxCell id="DcZRLVDdrjVp50DSScSN-10" value="Mail&lt;br&gt;&amp;nbsp;id" style="text;html=1;strokeColor=none;fillColor=none;align=center;verticalAlign=middle;whiteSpace=wrap;rounded=0;" vertex="1" parent="1">
          <mxGeometry x="60" y="65" width="40" height="20" as="geometry" />
        </mxCell>
        <mxCell id="DcZRLVDdrjVp50DSScSN-11" value="Reg No" style="text;html=1;strokeColor=none;fillColor=none;align=center;verticalAlign=middle;whiteSpace=wrap;rounded=0;" vertex="1" parent="1">
          <mxGeometry x="125" y="125" width="40" height="20" as="geometry" />
        </mxCell>
        <mxCell id="DcZRLVDdrjVp50DSScSN-79" style="edgeStyle=orthogonalEdgeStyle;rounded=0;orthogonalLoop=1;jettySize=auto;html=1;exitX=1;exitY=0.25;exitDx=0;exitDy=0;entryX=0;entryY=0.5;entryDx=0;entryDy=0;" edge="1" parent="1" source="DcZRLVDdrjVp50DSScSN-16" target="DcZRLVDdrjVp50DSScSN-77">
          <mxGeometry relative="1" as="geometry" />
        </mxCell>
        <mxCell id="DcZRLVDdrjVp50DSScSN-16" value="" style="rounded=1;whiteSpace=wrap;html=1;" vertex="1" parent="1">
          <mxGeometry x="340" y="90" width="120" height="30" as="geometry" />
        </mxCell>
        <mxCell id="DcZRLVDdrjVp50DSScSN-17" value="Department" style="text;html=1;strokeColor=none;fillColor=none;align=center;verticalAlign=middle;whiteSpace=wrap;rounded=0;" vertex="1" parent="1">
          <mxGeometry x="385" y="95" width="40" height="20" as="geometry" />
        </mxCell>
        <mxCell id="DcZRLVDdrjVp50DSScSN-23" value="" style="edgeStyle=orthogonalEdgeStyle;rounded=0;orthogonalLoop=1;jettySize=auto;html=1;" edge="1" parent="1" source="DcZRLVDdrjVp50DSScSN-19" target="DcZRLVDdrjVp50DSScSN-17">
          <mxGeometry relative="1" as="geometry" />
        </mxCell>
        <mxCell id="DcZRLVDdrjVp50DSScSN-19" value="" style="ellipse;whiteSpace=wrap;html=1;" vertex="1" parent="1">
          <mxGeometry x="330" y="10" width="110" height="30" as="geometry" />
        </mxCell>
        <mxCell id="DcZRLVDdrjVp50DSScSN-20" value="Name" style="text;html=1;strokeColor=none;fillColor=none;align=center;verticalAlign=middle;whiteSpace=wrap;rounded=0;" vertex="1" parent="1">
          <mxGeometry x="360" y="15" width="40" height="25" as="geometry" />
        </mxCell>
        <mxCell id="DcZRLVDdrjVp50DSScSN-25" style="edgeStyle=orthogonalEdgeStyle;rounded=0;orthogonalLoop=1;jettySize=auto;html=1;exitX=1;exitY=0.5;exitDx=0;exitDy=0;entryX=0.15;entryY=0.033;entryDx=0;entryDy=0;entryPerimeter=0;" edge="1" parent="1" source="DcZRLVDdrjVp50DSScSN-21" target="DcZRLVDdrjVp50DSScSN-16">
          <mxGeometry relative="1" as="geometry" />
        </mxCell>
        <mxCell id="DcZRLVDdrjVp50DSScSN-21" value="" style="ellipse;whiteSpace=wrap;html=1;" vertex="1" parent="1">
          <mxGeometry x="200" y="35" width="90" height="40" as="geometry" />
        </mxCell>
        <mxCell id="DcZRLVDdrjVp50DSScSN-22" value="Dept No" style="text;html=1;strokeColor=none;fillColor=none;align=center;verticalAlign=middle;whiteSpace=wrap;rounded=0;" vertex="1" parent="1">
          <mxGeometry x="230" y="50" width="40" height="20" as="geometry" />
        </mxCell>
        <mxCell id="DcZRLVDdrjVp50DSScSN-26" value="" style="rhombus;whiteSpace=wrap;html=1;" vertex="1" parent="1">
          <mxGeometry x="345" y="230" width="80" height="70" as="geometry" />
        </mxCell>
        <mxCell id="DcZRLVDdrjVp50DSScSN-27" value="Confirm" style="text;html=1;strokeColor=none;fillColor=none;align=center;verticalAlign=middle;whiteSpace=wrap;rounded=0;" vertex="1" parent="1">
          <mxGeometry x="365" y="250" width="40" height="20" as="geometry" />
        </mxCell>
        <mxCell id="DcZRLVDdrjVp50DSScSN-51" style="edgeStyle=orthogonalEdgeStyle;rounded=0;orthogonalLoop=1;jettySize=auto;html=1;exitX=1;exitY=0.5;exitDx=0;exitDy=0;entryX=0;entryY=0.75;entryDx=0;entryDy=0;" edge="1" parent="1" source="DcZRLVDdrjVp50DSScSN-32" target="DcZRLVDdrjVp50DSScSN-37">
          <mxGeometry relative="1" as="geometry" />
        </mxCell>
        <mxCell id="DcZRLVDdrjVp50DSScSN-32" value="" style="rhombus;whiteSpace=wrap;html=1;" vertex="1" parent="1">
          <mxGeometry x="45" y="360" width="75" height="40" as="geometry" />
        </mxCell>
        <mxCell id="DcZRLVDdrjVp50DSScSN-33" value="Has" style="text;html=1;strokeColor=none;fillColor=none;align=center;verticalAlign=middle;whiteSpace=wrap;rounded=0;" vertex="1" parent="1">
          <mxGeometry x="62.5" y="370" width="40" height="20" as="geometry" />
        </mxCell>
        <mxCell id="DcZRLVDdrjVp50DSScSN-37" value="" style="rounded=1;whiteSpace=wrap;html=1;" vertex="1" parent="1">
          <mxGeometry x="210" y="400" width="120" height="30" as="geometry" />
        </mxCell>
        <mxCell id="DcZRLVDdrjVp50DSScSN-38" value="Exam" style="text;html=1;strokeColor=none;fillColor=none;align=center;verticalAlign=middle;whiteSpace=wrap;rounded=0;" vertex="1" parent="1">
          <mxGeometry x="250" y="405" width="40" height="20" as="geometry" />
        </mxCell>
        <mxCell id="DcZRLVDdrjVp50DSScSN-52" style="edgeStyle=orthogonalEdgeStyle;rounded=0;orthogonalLoop=1;jettySize=auto;html=1;exitX=1;exitY=1;exitDx=0;exitDy=0;entryX=0;entryY=0;entryDx=0;entryDy=0;" edge="1" parent="1" source="DcZRLVDdrjVp50DSScSN-40" target="DcZRLVDdrjVp50DSScSN-38">
          <mxGeometry relative="1" as="geometry" />
        </mxCell>
        <mxCell id="DcZRLVDdrjVp50DSScSN-40" value="" style="ellipse;whiteSpace=wrap;html=1;" vertex="1" parent="1">
          <mxGeometry x="160" y="320" width="80" height="40" as="geometry" />
        </mxCell>
        <mxCell id="DcZRLVDdrjVp50DSScSN-53" style="edgeStyle=orthogonalEdgeStyle;rounded=0;orthogonalLoop=1;jettySize=auto;html=1;exitX=1;exitY=0.5;exitDx=0;exitDy=0;entryX=0.092;entryY=1.033;entryDx=0;entryDy=0;entryPerimeter=0;" edge="1" parent="1" source="DcZRLVDdrjVp50DSScSN-41" target="DcZRLVDdrjVp50DSScSN-37">
          <mxGeometry relative="1" as="geometry" />
        </mxCell>
        <mxCell id="DcZRLVDdrjVp50DSScSN-41" value="" style="ellipse;whiteSpace=wrap;html=1;" vertex="1" parent="1">
          <mxGeometry x="60" y="440" width="80" height="40" as="geometry" />
        </mxCell>
        <mxCell id="DcZRLVDdrjVp50DSScSN-47" style="edgeStyle=orthogonalEdgeStyle;rounded=0;orthogonalLoop=1;jettySize=auto;html=1;exitX=0.5;exitY=0;exitDx=0;exitDy=0;entryX=0.175;entryY=1.1;entryDx=0;entryDy=0;entryPerimeter=0;" edge="1" parent="1" source="DcZRLVDdrjVp50DSScSN-42" target="DcZRLVDdrjVp50DSScSN-37">
          <mxGeometry relative="1" as="geometry" />
        </mxCell>
        <mxCell id="DcZRLVDdrjVp50DSScSN-42" value="" style="ellipse;whiteSpace=wrap;html=1;" vertex="1" parent="1">
          <mxGeometry x="190" y="470" width="80" height="30" as="geometry" />
        </mxCell>
        <mxCell id="DcZRLVDdrjVp50DSScSN-49" style="edgeStyle=orthogonalEdgeStyle;rounded=0;orthogonalLoop=1;jettySize=auto;html=1;entryX=0.933;entryY=-0.133;entryDx=0;entryDy=0;entryPerimeter=0;" edge="1" parent="1" source="DcZRLVDdrjVp50DSScSN-48" target="DcZRLVDdrjVp50DSScSN-37">
          <mxGeometry relative="1" as="geometry">
            <Array as="points">
              <mxPoint x="325" y="375" />
              <mxPoint x="322" y="375" />
            </Array>
          </mxGeometry>
        </mxCell>
        <mxCell id="DcZRLVDdrjVp50DSScSN-48" value="" style="ellipse;whiteSpace=wrap;html=1;" vertex="1" parent="1">
          <mxGeometry x="285" y="320" width="80" height="30" as="geometry" />
        </mxCell>
        <mxCell id="DcZRLVDdrjVp50DSScSN-54" value="SEm" style="text;html=1;strokeColor=none;fillColor=none;align=center;verticalAlign=middle;whiteSpace=wrap;rounded=0;" vertex="1" parent="1">
          <mxGeometry x="180" y="330" width="40" height="20" as="geometry" />
        </mxCell>
        <mxCell id="DcZRLVDdrjVp50DSScSN-55" value="Course code" style="text;html=1;strokeColor=none;fillColor=none;align=center;verticalAlign=middle;whiteSpace=wrap;rounded=0;" vertex="1" parent="1">
          <mxGeometry x="80" y="450" width="40" height="20" as="geometry" />
        </mxCell>
        <mxCell id="DcZRLVDdrjVp50DSScSN-56" value="Exam id" style="text;html=1;strokeColor=none;fillColor=none;align=center;verticalAlign=middle;whiteSpace=wrap;rounded=0;" vertex="1" parent="1">
          <mxGeometry x="200" y="475" width="40" height="20" as="geometry" />
        </mxCell>
        <mxCell id="DcZRLVDdrjVp50DSScSN-57" value="Year" style="text;html=1;strokeColor=none;fillColor=none;align=center;verticalAlign=middle;whiteSpace=wrap;rounded=0;" vertex="1" parent="1">
          <mxGeometry x="305" y="325" width="40" height="20" as="geometry" />
        </mxCell>
        <mxCell id="DcZRLVDdrjVp50DSScSN-60" style="edgeStyle=orthogonalEdgeStyle;rounded=0;orthogonalLoop=1;jettySize=auto;html=1;exitX=0.5;exitY=1;exitDx=0;exitDy=0;entryX=0.592;entryY=-0.067;entryDx=0;entryDy=0;entryPerimeter=0;" edge="1" parent="1" source="DcZRLVDdrjVp50DSScSN-58" target="DcZRLVDdrjVp50DSScSN-37">
          <mxGeometry relative="1" as="geometry" />
        </mxCell>
        <mxCell id="DcZRLVDdrjVp50DSScSN-58" value="" style="rhombus;whiteSpace=wrap;html=1;" vertex="1" parent="1">
          <mxGeometry x="200" y="150" width="80" height="50" as="geometry" />
        </mxCell>
        <mxCell id="DcZRLVDdrjVp50DSScSN-61" style="edgeStyle=orthogonalEdgeStyle;rounded=0;orthogonalLoop=1;jettySize=auto;html=1;entryX=0;entryY=0.5;entryDx=0;entryDy=0;" edge="1" parent="1" source="DcZRLVDdrjVp50DSScSN-59" target="DcZRLVDdrjVp50DSScSN-16">
          <mxGeometry relative="1" as="geometry" />
        </mxCell>
        <mxCell id="DcZRLVDdrjVp50DSScSN-59" value="Of" style="text;html=1;strokeColor=none;fillColor=none;align=center;verticalAlign=middle;whiteSpace=wrap;rounded=0;" vertex="1" parent="1">
          <mxGeometry x="220" y="165" width="40" height="20" as="geometry" />
        </mxCell>
        <mxCell id="DcZRLVDdrjVp50DSScSN-62" value="" style="rounded=1;whiteSpace=wrap;html=1;" vertex="1" parent="1">
          <mxGeometry x="640" y="120" width="120" height="30" as="geometry" />
        </mxCell>
        <mxCell id="DcZRLVDdrjVp50DSScSN-63" value="User" style="text;html=1;strokeColor=none;fillColor=none;align=center;verticalAlign=middle;whiteSpace=wrap;rounded=0;" vertex="1" parent="1">
          <mxGeometry x="680" y="125" width="40" height="20" as="geometry" />
        </mxCell>
        <mxCell id="DcZRLVDdrjVp50DSScSN-73" style="edgeStyle=orthogonalEdgeStyle;rounded=0;orthogonalLoop=1;jettySize=auto;html=1;exitX=0.5;exitY=1;exitDx=0;exitDy=0;entryX=0;entryY=0.75;entryDx=0;entryDy=0;" edge="1" parent="1" source="DcZRLVDdrjVp50DSScSN-64" target="DcZRLVDdrjVp50DSScSN-62">
          <mxGeometry relative="1" as="geometry" />
        </mxCell>
        <mxCell id="DcZRLVDdrjVp50DSScSN-64" value="" style="ellipse;whiteSpace=wrap;html=1;" vertex="1" parent="1">
          <mxGeometry x="550" y="50" width="70" height="50" as="geometry" />
        </mxCell>
        <mxCell id="DcZRLVDdrjVp50DSScSN-74" style="edgeStyle=orthogonalEdgeStyle;rounded=0;orthogonalLoop=1;jettySize=auto;html=1;exitX=0.5;exitY=1;exitDx=0;exitDy=0;entryX=0.25;entryY=0;entryDx=0;entryDy=0;" edge="1" parent="1" source="DcZRLVDdrjVp50DSScSN-65" target="DcZRLVDdrjVp50DSScSN-62">
          <mxGeometry relative="1" as="geometry" />
        </mxCell>
        <mxCell id="DcZRLVDdrjVp50DSScSN-65" value="" style="ellipse;whiteSpace=wrap;html=1;" vertex="1" parent="1">
          <mxGeometry x="640" y="50" width="70" height="50" as="geometry" />
        </mxCell>
        <mxCell id="DcZRLVDdrjVp50DSScSN-75" style="edgeStyle=orthogonalEdgeStyle;rounded=0;orthogonalLoop=1;jettySize=auto;html=1;entryX=1;entryY=0.25;entryDx=0;entryDy=0;" edge="1" parent="1" source="DcZRLVDdrjVp50DSScSN-66" target="DcZRLVDdrjVp50DSScSN-62">
          <mxGeometry relative="1" as="geometry" />
        </mxCell>
        <mxCell id="DcZRLVDdrjVp50DSScSN-66" value="" style="ellipse;whiteSpace=wrap;html=1;" vertex="1" parent="1">
          <mxGeometry x="740" y="45" width="70" height="45" as="geometry" />
        </mxCell>
        <mxCell id="DcZRLVDdrjVp50DSScSN-76" style="edgeStyle=orthogonalEdgeStyle;rounded=0;orthogonalLoop=1;jettySize=auto;html=1;exitX=0.5;exitY=0;exitDx=0;exitDy=0;entryX=0.45;entryY=1.067;entryDx=0;entryDy=0;entryPerimeter=0;" edge="1" parent="1" source="DcZRLVDdrjVp50DSScSN-67" target="DcZRLVDdrjVp50DSScSN-62">
          <mxGeometry relative="1" as="geometry" />
        </mxCell>
        <mxCell id="DcZRLVDdrjVp50DSScSN-67" value="" style="ellipse;whiteSpace=wrap;html=1;" vertex="1" parent="1">
          <mxGeometry x="660" y="165" width="70" height="50" as="geometry" />
        </mxCell>
        <mxCell id="DcZRLVDdrjVp50DSScSN-68" value="id" style="text;html=1;strokeColor=none;fillColor=none;align=center;verticalAlign=middle;whiteSpace=wrap;rounded=0;" vertex="1" parent="1">
          <mxGeometry x="565" y="65" width="40" height="20" as="geometry" />
        </mxCell>
        <mxCell id="DcZRLVDdrjVp50DSScSN-69" value="password" style="text;html=1;strokeColor=none;fillColor=none;align=center;verticalAlign=middle;whiteSpace=wrap;rounded=0;" vertex="1" parent="1">
          <mxGeometry x="660" y="65" width="40" height="20" as="geometry" />
        </mxCell>
        <mxCell id="DcZRLVDdrjVp50DSScSN-70" value="NAme" style="text;html=1;strokeColor=none;fillColor=none;align=center;verticalAlign=middle;whiteSpace=wrap;rounded=0;" vertex="1" parent="1">
          <mxGeometry x="755" y="65" width="40" height="20" as="geometry" />
        </mxCell>
        <mxCell id="DcZRLVDdrjVp50DSScSN-71" value="Contact No" style="text;html=1;strokeColor=none;fillColor=none;align=center;verticalAlign=middle;whiteSpace=wrap;rounded=0;" vertex="1" parent="1">
          <mxGeometry x="670" y="180" width="40" height="20" as="geometry" />
        </mxCell>
        <mxCell id="DcZRLVDdrjVp50DSScSN-84" style="edgeStyle=orthogonalEdgeStyle;rounded=0;orthogonalLoop=1;jettySize=auto;html=1;entryX=0.567;entryY=-0.133;entryDx=0;entryDy=0;entryPerimeter=0;" edge="1" parent="1" source="DcZRLVDdrjVp50DSScSN-77" target="DcZRLVDdrjVp50DSScSN-80">
          <mxGeometry relative="1" as="geometry" />
        </mxCell>
        <mxCell id="DcZRLVDdrjVp50DSScSN-77" value="" style="rhombus;whiteSpace=wrap;html=1;" vertex="1" parent="1">
          <mxGeometry x="510" y="10" width="80" height="30" as="geometry" />
        </mxCell>
        <mxCell id="DcZRLVDdrjVp50DSScSN-78" value="Belong to" style="text;html=1;strokeColor=none;fillColor=none;align=center;verticalAlign=middle;whiteSpace=wrap;rounded=0;" vertex="1" parent="1">
          <mxGeometry x="525" y="15" width="40" height="20" as="geometry" />
        </mxCell>
        <mxCell id="DcZRLVDdrjVp50DSScSN-80" value="" style="rounded=1;whiteSpace=wrap;html=1;" vertex="1" parent="1">
          <mxGeometry x="890" y="200" width="120" height="30" as="geometry" />
        </mxCell>
        <mxCell id="DcZRLVDdrjVp50DSScSN-81" value="Examiner" style="text;html=1;strokeColor=none;fillColor=none;align=center;verticalAlign=middle;whiteSpace=wrap;rounded=0;" vertex="1" parent="1">
          <mxGeometry x="930" y="205" width="40" height="20" as="geometry" />
        </mxCell>
      </root>
    </mxGraphModel>
  </diagram>
</mxfile>
